<svg width="44" height="46" viewBox="0 0 44 46" fill="none" xmlns="http://www.w3.org/2000/svg" xmlns:xlink="http://www.w3.org/1999/xlink">
<line x1="0" y1="20.417" x2="40.833" y2="20.417" stroke="#3A276A" stroke-width="2" stroke-miterlimit="3.999327" stroke-linecap="round" stroke-linejoin="round"/>
<path d="M21.831,0.586C21.05,-0.195 19.783,-0.195 19.002,0.586C18.221,1.367 18.221,2.633 19.002,3.414L21.831,0.586ZM40.833,22.417L42.247,23.831C43.029,23.05 43.029,21.784 42.247,21.002L40.833,22.417ZM19.002,41.419C18.221,42.2 18.221,43.466 19.002,44.248C19.783,45.029 21.05,45.029 21.831,44.248L19.002,41.419ZM19.002,3.414L39.419,23.831L42.247,21.002L21.831,0.586L19.002,3.414ZM39.419,21.002L19.002,41.419L21.831,44.248L42.247,23.831L39.419,21.002Z" fill="#3A276A"/>
</svg>
