<svg width="48" height="24" viewBox="0 0 48 24" fill="none" xmlns="http://www.w3.org/2000/svg" xmlns:xlink="http://www.w3.org/1999/xlink">
<g opacity="0.4">
<path d="M5.714,1C4.419,1.032 3.189,1.576 2.294,2.513C1.399,3.451 0.912,4.704 0.94,6L0.94,18C0.912,19.295 1.399,20.549 2.293,21.486C3.188,22.423 4.417,22.967 5.712,23L36.258,23C37.553,22.968 38.783,22.424 39.678,21.487C40.573,20.549 41.06,19.296 41.032,18L41.032,6C41.06,4.704 40.573,3.451 39.678,2.513C38.783,1.576 37.553,1.032 36.258,1L5.714,1ZM5.714,0L36.258,0C37.813,0.037 39.29,0.689 40.364,1.814C41.438,2.939 42.021,4.445 41.986,6L41.986,18C42.021,19.555 41.438,21.061 40.364,22.186C39.29,23.311 37.813,23.963 36.258,24L5.714,24C4.159,23.963 2.682,23.311 1.608,22.186C0.534,21.061 -0.049,19.555 -0.014,18L-0.014,6C-0.049,4.445 0.534,2.939 1.608,1.814C2.682,0.689 4.159,0.037 5.714,0L5.714,0Z" fill="#000000"/>
</g>
<rect  x="3.986" y="4" width="34" height="16" rx="2" fill="#000000"/>
<g opacity="0.4">
<path d="M43.986,8C45.047,8 46.064,8.421 46.814,9.172C47.565,9.922 47.986,10.939 47.986,12C47.986,13.061 47.565,14.078 46.814,14.828C46.064,15.579 45.047,16 43.986,16L43.986,8Z" fill="#000000"/>
</g>
</svg>
