<svg width="60" height="60" viewBox="0 0 60 60" fill="none" xmlns="http://www.w3.org/2000/svg" xmlns:xlink="http://www.w3.org/1999/xlink">
<path d="M30,5L30,3.5L30,5ZM15,20L13.5,20L15,20ZM7.5,42.5L6.668,41.252C6.118,41.619 5.873,42.302 6.064,42.935C6.256,43.567 6.839,44 7.5,44L7.5,42.5ZM52.5,42.5L52.5,44C53.161,44 53.744,43.567 53.936,42.935C54.127,42.302 53.882,41.619 53.332,41.252L52.5,42.5ZM46.5,20C46.5,15.624 44.762,11.427 41.667,8.333L39.546,10.454C42.078,12.986 43.5,16.42 43.5,20L46.5,20ZM41.667,8.333C38.573,5.238 34.376,3.5 30,3.5L30,6.5C33.58,6.5 37.014,7.922 39.546,10.454L41.667,8.333ZM30,3.5C25.624,3.5 21.427,5.238 18.333,8.333L20.454,10.454C22.986,7.922 26.42,6.5 30,6.5L30,3.5ZM18.333,8.333C15.238,11.427 13.5,15.624 13.5,20L16.5,20C16.5,16.42 17.922,12.986 20.454,10.454L18.333,8.333ZM13.5,20C13.5,28.529 11.674,33.902 9.933,37.094C9.06,38.694 8.201,39.761 7.583,40.414C7.274,40.74 7.024,40.964 6.862,41.099C6.781,41.166 6.722,41.211 6.689,41.236C6.672,41.249 6.661,41.256 6.658,41.259C6.656,41.26 6.656,41.26 6.658,41.259C6.658,41.258 6.66,41.257 6.661,41.256C6.662,41.256 6.663,41.255 6.664,41.254C6.665,41.254 6.666,41.253 6.666,41.253C6.667,41.253 6.668,41.252 7.5,42.5C8.332,43.748 8.333,43.747 8.334,43.747C8.334,43.746 8.336,43.746 8.336,43.745C8.338,43.744 8.34,43.743 8.341,43.742C8.345,43.739 8.349,43.737 8.353,43.734C8.362,43.728 8.373,43.72 8.385,43.711C8.41,43.694 8.442,43.671 8.48,43.643C8.556,43.586 8.658,43.507 8.783,43.403C9.031,43.196 9.367,42.893 9.761,42.477C10.549,41.645 11.565,40.368 12.567,38.531C14.576,34.848 16.5,28.971 16.5,20L13.5,20ZM7.5,44L52.5,44L52.5,41L7.5,41L7.5,44ZM52.5,42.5C53.332,41.252 53.333,41.253 53.334,41.253C53.334,41.253 53.335,41.254 53.336,41.254C53.337,41.255 53.338,41.256 53.339,41.256C53.34,41.257 53.342,41.258 53.342,41.259C53.344,41.26 53.344,41.26 53.342,41.259C53.339,41.256 53.328,41.249 53.311,41.236C53.278,41.211 53.219,41.166 53.138,41.099C52.976,40.964 52.726,40.74 52.417,40.414C51.799,39.761 50.94,38.694 50.067,37.094C48.326,33.902 46.5,28.529 46.5,20L43.5,20C43.5,28.971 45.424,34.848 47.433,38.531C48.435,40.368 49.451,41.645 50.239,42.477C50.633,42.893 50.969,43.196 51.217,43.403C51.342,43.507 51.444,43.586 51.52,43.643C51.558,43.671 51.59,43.694 51.615,43.711C51.627,43.72 51.638,43.728 51.647,43.734C51.651,43.737 51.655,43.739 51.659,43.742C51.66,43.743 51.662,43.744 51.664,43.745C51.664,43.746 51.666,43.746 51.666,43.747C51.667,43.747 51.668,43.748 52.5,42.5Z" fill="#3A276A"/>
<path d="M36.055,53.504C36.609,52.548 36.284,51.324 35.329,50.77C34.373,50.216 33.149,50.541 32.595,51.496L36.055,53.504ZM27.405,51.496C26.851,50.541 25.627,50.216 24.672,50.77C23.716,51.324 23.391,52.548 23.945,53.504L27.405,51.496ZM32.595,51.496C32.331,51.951 31.953,52.328 31.497,52.591L33.494,56.057C34.556,55.445 35.44,54.564 36.055,53.504L32.595,51.496ZM31.497,52.591C31.042,52.853 30.526,52.991 30,52.991L30,56.991C31.226,56.991 32.431,56.669 33.494,56.057L31.497,52.591ZM30,52.991C29.474,52.991 28.958,52.853 28.503,52.591L26.506,56.057C27.569,56.669 28.774,56.991 30,56.991L30,52.991ZM28.503,52.591C28.047,52.328 27.669,51.951 27.405,51.496L23.945,53.504C24.56,54.564 25.444,55.445 26.506,56.057L28.503,52.591Z" fill="#3A276A"/>
</svg>
