<svg width="48" height="54" viewBox="0 0 48 54" fill="none" xmlns="http://www.w3.org/2000/svg" xmlns:xlink="http://www.w3.org/1999/xlink">
<path d="M24,1L24,-0.5L24,1ZM9,16L7.5,16L9,16ZM1.5,38.5L0.668,37.252C0.118,37.619 -0.127,38.302 0.064,38.935C0.256,39.567 0.839,40 1.5,40L1.5,38.5ZM46.5,38.5L46.5,40C47.161,40 47.744,39.567 47.936,38.935C48.127,38.302 47.882,37.619 47.332,37.252L46.5,38.5ZM40.5,16C40.5,11.624 38.762,7.427 35.667,4.333L33.546,6.454C36.078,8.986 37.5,12.42 37.5,16L40.5,16ZM35.667,4.333C32.573,1.238 28.376,-0.5 24,-0.5L24,2.5C27.58,2.5 31.014,3.922 33.546,6.454L35.667,4.333ZM24,-0.5C19.624,-0.5 15.427,1.238 12.333,4.333L14.454,6.454C16.986,3.922 20.42,2.5 24,2.5L24,-0.5ZM12.333,4.333C9.238,7.427 7.5,11.624 7.5,16L10.5,16C10.5,12.42 11.922,8.986 14.454,6.454L12.333,4.333ZM7.5,16C7.5,24.529 5.674,29.902 3.933,33.094C3.06,34.694 2.201,35.761 1.583,36.414C1.274,36.74 1.024,36.964 0.862,37.099C0.781,37.166 0.722,37.211 0.689,37.236C0.672,37.249 0.661,37.256 0.658,37.259C0.656,37.26 0.656,37.26 0.658,37.259C0.658,37.258 0.66,37.257 0.661,37.256C0.662,37.256 0.663,37.255 0.664,37.254C0.665,37.254 0.666,37.253 0.666,37.253C0.667,37.253 0.668,37.252 1.5,38.5C2.332,39.748 2.333,39.747 2.334,39.747C2.334,39.746 2.336,39.746 2.336,39.745C2.338,39.744 2.34,39.743 2.341,39.742C2.345,39.739 2.349,39.737 2.353,39.734C2.362,39.728 2.373,39.72 2.385,39.711C2.41,39.694 2.442,39.671 2.48,39.643C2.556,39.586 2.658,39.507 2.783,39.403C3.031,39.196 3.367,38.893 3.761,38.477C4.549,37.645 5.565,36.368 6.567,34.531C8.576,30.848 10.5,24.971 10.5,16L7.5,16ZM1.5,40L46.5,40L46.5,37L1.5,37L1.5,40ZM46.5,38.5C47.332,37.252 47.333,37.253 47.334,37.253C47.334,37.253 47.335,37.254 47.336,37.254C47.337,37.255 47.338,37.256 47.339,37.256C47.34,37.257 47.342,37.258 47.342,37.259C47.344,37.26 47.344,37.26 47.342,37.259C47.339,37.256 47.328,37.249 47.311,37.236C47.278,37.211 47.219,37.166 47.138,37.099C46.976,36.964 46.726,36.74 46.417,36.414C45.799,35.761 44.94,34.694 44.067,33.094C42.326,29.902 40.5,24.529 40.5,16L37.5,16C37.5,24.971 39.424,30.848 41.433,34.531C42.435,36.368 43.451,37.645 44.239,38.477C44.633,38.893 44.969,39.196 45.217,39.403C45.342,39.507 45.444,39.586 45.52,39.643C45.558,39.671 45.59,39.694 45.615,39.711C45.627,39.72 45.638,39.728 45.647,39.734C45.651,39.737 45.655,39.739 45.659,39.742C45.66,39.743 45.662,39.744 45.664,39.745C45.664,39.746 45.666,39.746 45.666,39.747C45.667,39.747 45.668,39.748 46.5,38.5Z" fill="#3A276A"/>
<path d="M29.622,49.253C30.038,48.536 29.794,47.618 29.077,47.202C28.361,46.787 27.443,47.031 27.027,47.747L29.622,49.253ZM20.972,47.747C20.557,47.031 19.639,46.787 18.922,47.202C18.206,47.618 17.962,48.536 18.377,49.253L20.972,47.747ZM27.027,47.747C26.72,48.278 26.278,48.718 25.747,49.024L27.244,51.624C28.231,51.055 29.051,50.238 29.622,49.253L27.027,47.747ZM25.747,49.024C25.215,49.33 24.613,49.491 24,49.491L24,52.491C25.139,52.491 26.257,52.192 27.244,51.624L25.747,49.024ZM24,49.491C23.387,49.491 22.784,49.33 22.253,49.024L20.756,51.624C21.742,52.192 22.861,52.491 24,52.491L24,49.491ZM22.253,49.024C21.722,48.718 21.28,48.278 20.972,47.747L18.377,49.253C18.949,50.238 19.769,51.055 20.756,51.624L22.253,49.024Z" fill="#3A276A"/>
</svg>
