<svg width="326" height="400" viewBox="0 0 326 400" fill="none" xmlns="http://www.w3.org/2000/svg" xmlns:xlink="http://www.w3.org/1999/xlink">
<path d="M313.138,86.863C328.758,71.242 328.918,45.507 310.506,33.301C288.924,18.995 264.662,8.944 239.018,3.843C200.222,-3.874 160.008,0.087 123.463,15.224C86.918,30.362 55.682,55.996 33.706,88.886C11.73,121.776 0,160.444 0,200C0,239.556 11.73,278.224 33.706,311.114C55.682,344.004 86.918,369.638 123.463,384.776C160.009,399.914 200.222,403.874 239.018,396.158C264.662,391.056 288.924,381.004 310.506,366.698C328.918,354.492 328.758,328.758 313.138,313.138L298.994,298.994C283.374,283.374 258.064,284.36 237.592,292.666C231.776,295.024 225.724,296.842 219.51,298.078C200.11,301.938 180.004,299.956 161.732,292.388C143.459,284.82 127.841,272.002 116.853,255.558C105.865,239.112 100,219.778 100,200C100,180.222 105.865,160.888 116.853,144.443C127.841,127.998 143.459,115.181 161.732,107.612C180.004,100.043 200.11,98.063 219.51,101.921C225.724,103.158 231.776,104.975 237.592,107.335C258.064,115.64 283.374,116.626 298.994,101.005L313.138,86.863Z" fill="#FFFFFF"/>
</svg>
