<svg width="322" height="400" viewBox="0 0 322 400" fill="none" xmlns="http://www.w3.org/2000/svg" xmlns:xlink="http://www.w3.org/1999/xlink">
<path d="M306.066,93.934C325.592,74.408 325.786,42.075 302.036,27.986C282.652,16.488 261.358,8.287 239.018,3.843C200.222,-3.874 160.008,0.087 123.463,15.224C86.918,30.362 55.682,55.996 33.706,88.886C11.73,121.776 0,160.444 0,200C0,239.556 11.73,278.224 33.706,311.114C55.682,344.004 86.918,369.638 123.463,384.776C160.009,399.914 200.222,403.874 239.018,396.158C261.358,391.714 282.652,383.512 302.036,372.014C325.786,357.926 325.592,325.592 306.066,306.066L306.066,306.066C286.54,286.54 254.65,288.18 228.154,295.956C225.312,296.788 222.428,297.498 219.51,298.078C200.11,301.938 180.004,299.956 161.732,292.388C143.459,284.82 127.841,272.002 116.853,255.558C105.865,239.112 100,219.778 100,200C100,180.222 105.865,160.888 116.853,144.443C127.841,127.998 143.459,115.181 161.732,107.612C180.004,100.043 200.11,98.063 219.51,101.921C222.428,102.502 225.312,103.211 228.154,104.045C254.65,111.819 286.54,113.46 306.066,93.934L306.066,93.934Z" transform="rotate(-180 200 200)" fill="#FFFFFF"/>
</svg>
