<svg width="54" height="54" viewBox="0 0 54 54" fill="none" xmlns="http://www.w3.org/2000/svg" xmlns:xlink="http://www.w3.org/1999/xlink">
<path d="M49.5,26C49.5,38.979 38.979,49.5 26,49.5L26,52.5C40.636,52.5 52.5,40.636 52.5,26L49.5,26ZM26,49.5C13.021,49.5 2.5,38.979 2.5,26L-0.5,26C-0.5,40.636 11.364,52.5 26,52.5L26,49.5ZM2.5,26C2.5,13.021 13.021,2.5 26,2.5L26,-0.5C11.364,-0.5 -0.5,11.364 -0.5,26L2.5,26ZM26,2.5C38.979,2.5 49.5,13.021 49.5,26L52.5,26C52.5,11.364 40.636,-0.5 26,-0.5L26,2.5Z" fill="#3A276A"/>
<path d="M27.5,11C27.5,10.172 26.828,9.5 26,9.5C25.172,9.5 24.5,10.172 24.5,11L27.5,11ZM26,26L24.5,26C24.5,26.568 24.821,27.088 25.329,27.342L26,26ZM35.329,32.342C36.07,32.712 36.971,32.412 37.342,31.671C37.712,30.93 37.412,30.029 36.671,29.658L35.329,32.342ZM24.5,11L24.5,26L27.5,26L27.5,11L24.5,11ZM25.329,27.342L35.329,32.342L36.671,29.658L26.671,24.658L25.329,27.342Z" fill="#3A276A"/>
</svg>
