<svg width="62" height="62" viewBox="0 0 62 62" fill="none" xmlns="http://www.w3.org/2000/svg" xmlns:xlink="http://www.w3.org/1999/xlink">
<path d="M57.833,31C57.833,46.28 45.447,58.667 30.167,58.667L30.167,61.667C47.103,61.667 60.833,47.937 60.833,31L57.833,31ZM30.167,58.667C14.887,58.667 2.5,46.28 2.5,31L-0.5,31C-0.5,47.937 13.23,61.667 30.167,61.667L30.167,58.667ZM2.5,31C2.5,15.72 14.887,3.333 30.167,3.333L30.167,0.333C13.23,0.333 -0.5,14.063 -0.5,31L2.5,31ZM30.167,3.333C45.447,3.333 57.833,15.72 57.833,31L60.833,31C60.833,14.063 47.103,0.333 30.167,0.333L30.167,3.333Z" fill="#FFFFFF"/>
<path d="M31.667,13.5C31.667,12.672 30.995,12 30.167,12C29.339,12 28.667,12.672 28.667,13.5L31.667,13.5ZM30.167,31L28.667,31C28.667,31.568 28.988,32.088 29.496,32.342L30.167,31ZM41.163,38.175C41.904,38.545 42.805,38.245 43.175,37.504C43.546,36.763 43.245,35.862 42.504,35.492L41.163,38.175ZM28.667,13.5L28.667,31L31.667,31L31.667,13.5L28.667,13.5ZM29.496,32.342L41.163,38.175L42.504,35.492L30.838,29.658L29.496,32.342Z" fill="#FFFFFF"/>
</svg>
