<svg width="138" height="138" viewBox="0 0 138 138" fill="none" xmlns="http://www.w3.org/2000/svg" xmlns:xlink="http://www.w3.org/1999/xlink">
<path d="M118.003,68.003C118.003,65.241 115.765,63.003 113.003,63.003C110.242,63.003 108.003,65.241 108.003,68.003L118.003,68.003ZM106.046,80.363C105.192,82.99 106.63,85.81 109.256,86.664C111.882,87.517 114.703,86.08 115.556,83.453L106.046,80.363ZM108.003,68.003C108.003,72.2 107.343,76.371 106.046,80.363L115.556,83.453C117.178,78.463 118.003,73.249 118.003,68.003L108.003,68.003Z" transform="rotate(-240 68.003 68.003)" fill="#FFFFFF"/>
<path d="M118.011,68.008C118.011,65.247 115.772,63.008 113.011,63.008C110.249,63.008 108.011,65.247 108.011,68.008L118.011,68.008ZM106.053,80.369C105.2,82.995 106.637,85.816 109.263,86.669C111.89,87.522 114.71,86.085 115.564,83.459L106.053,80.369ZM108.011,68.008C108.011,72.205 107.35,76.377 106.053,80.369L115.564,83.459C117.185,78.469 118.011,73.255 118.011,68.008L108.011,68.008Z" transform="rotate(-96 68.011 68.008)" fill="#FFFFFF"/>
<path d="M118.003,67.994C118.003,65.232 115.764,62.994 113.003,62.994C110.241,62.994 108.003,65.232 108.003,67.994L118.003,67.994ZM106.045,80.354C105.192,82.981 106.629,85.801 109.255,86.655C111.881,87.508 114.702,86.071 115.555,83.444L106.045,80.354ZM108.003,67.994C108.003,72.191 107.342,76.362 106.045,80.354L115.555,83.444C117.177,78.454 118.003,73.24 118.003,67.994L108.003,67.994Z" transform="rotate(-204 68.003 67.994)" fill="#FFFFFF"/>
<path d="M118.001,68.005C118.001,65.244 115.762,63.005 113.001,63.005C110.239,63.005 108.001,65.244 108.001,68.005L118.001,68.005ZM106.043,80.366C105.19,82.992 106.627,85.813 109.253,86.666C111.879,87.52 114.7,86.082 115.553,83.456L106.043,80.366ZM108.001,68.005C108.001,72.203 107.34,76.374 106.043,80.366L115.553,83.456C117.175,78.466 118.001,73.252 118.001,68.005L108.001,68.005Z" transform="rotate(-168 68.001 68.005)" fill="#FFFFFF"/>
<path d="M118,68.004C118,65.242 115.761,63.004 113,63.004C110.238,63.004 108,65.242 108,68.004L118,68.004ZM106.042,80.364C105.189,82.991 106.626,85.812 109.252,86.665C111.879,87.518 114.699,86.081 115.553,83.455L106.042,80.364ZM108,68.004C108,72.201 107.339,76.372 106.042,80.364L115.553,83.455C117.174,78.465 118,73.251 118,68.004L108,68.004Z" transform="rotate(-132 68 68.004)" fill="#FFFFFF"/>
</svg>
