<svg width="138" height="138" viewBox="0 0 138 138" fill="none" xmlns="http://www.w3.org/2000/svg" xmlns:xlink="http://www.w3.org/1999/xlink">
<path d="M118.004,68.002C118.004,65.24 115.765,63.002 113.004,63.002C110.242,63.002 108.004,65.24 108.004,68.002L118.004,68.002ZM106.046,80.362C105.193,82.989 106.63,85.81 109.256,86.663C111.882,87.516 114.703,86.079 115.556,83.453L106.046,80.362ZM108.004,68.002C108.004,72.199 107.343,76.37 106.046,80.362L115.556,83.453C117.178,78.463 118.004,73.249 118.004,68.002L108.004,68.002Z" transform="rotate(240 68.004 68.002)" fill="#FFFFFF"/>
<path d="M118.005,67.993C118.005,65.231 115.766,62.993 113.005,62.993C110.243,62.993 108.005,65.231 108.005,67.993L118.005,67.993ZM106.047,80.353C105.194,82.98 106.631,85.8 109.257,86.654C111.883,87.507 114.704,86.07 115.557,83.443L106.047,80.353ZM108.005,67.993C108.005,72.19 107.344,76.361 106.047,80.353L115.557,83.443C117.179,78.453 118.005,73.239 118.005,67.993L108.005,67.993Z" transform="rotate(-336 68.005 67.993)" fill="#FFFFFF"/>
<path d="M117.996,68.007C117.996,65.246 115.758,63.007 112.996,63.007C110.235,63.007 107.996,65.246 107.996,68.007L117.996,68.007ZM106.039,80.368C105.185,82.994 106.623,85.815 109.249,86.668C111.875,87.521 114.696,86.084 115.549,83.458L106.039,80.368ZM107.996,68.007C107.996,72.204 107.336,76.376 106.039,80.368L115.549,83.458C117.171,78.468 117.996,73.254 117.996,68.007L107.996,68.007Z" transform="rotate(276 67.996 68.007)" fill="#FFFFFF"/>
<path d="M118.007,68.003C118.007,65.241 115.769,63.003 113.007,63.003C110.246,63.003 108.007,65.241 108.007,68.003L118.007,68.003ZM106.05,80.363C105.196,82.99 106.634,85.811 109.26,86.664C111.886,87.517 114.707,86.08 115.56,83.454L106.05,80.363ZM108.007,68.003C108.007,72.2 107.347,76.371 106.05,80.363L115.56,83.454C117.182,78.464 118.007,73.25 118.007,68.003L108.007,68.003Z" transform="rotate(312 68.007 68.003)" fill="#FFFFFF"/>
<path d="M118.006,68.004C118.006,65.243 115.768,63.004 113.006,63.004C110.245,63.004 108.006,65.243 108.006,68.004L118.006,68.004ZM106.049,80.365C105.195,82.991 106.633,85.812 109.259,86.665C111.885,87.519 114.706,86.081 115.559,83.455L106.049,80.365ZM108.006,68.004C108.006,72.202 107.346,76.373 106.049,80.365L115.559,83.455C117.181,78.465 118.006,73.251 118.006,68.004L108.006,68.004Z" transform="rotate(348 68.006 68.004)" fill="#FFFFFF"/>
</svg>
