<svg width="14" height="14" viewBox="0 0 14 14" fill="none" xmlns="http://www.w3.org/2000/svg" xmlns:xlink="http://www.w3.org/1999/xlink">
<line x1="0.167" y1="5.333" x2="11.833" y2="5.333" stroke="#FFFFFF" stroke-width="0.667" stroke-miterlimit="3.999327" stroke-linecap="round" stroke-linejoin="round"/>
<path d="M6.471,-0.305C6.211,-0.565 5.789,-0.565 5.529,-0.305C5.268,-0.044 5.268,0.378 5.529,0.638L6.471,-0.305ZM11.833,6L12.305,6.471C12.565,6.211 12.565,5.789 12.305,5.529L11.833,6ZM5.529,11.362C5.268,11.622 5.268,12.044 5.529,12.305C5.789,12.565 6.211,12.565 6.471,12.305L5.529,11.362ZM5.529,0.638L11.362,6.471L12.305,5.529L6.471,-0.305L5.529,0.638ZM11.362,5.529L5.529,11.362L6.471,12.305L12.305,6.471L11.362,5.529Z" fill="#FFFFFF"/>
</svg>
