<svg width="100" height="100" viewBox="0 0 100 100" fill="none" xmlns="http://www.w3.org/2000/svg" xmlns:xlink="http://www.w3.org/1999/xlink">
<path d="M100,50C100,47.239 97.761,45 95,45C92.239,45 90,47.239 90,50L100,50ZM88.042,62.361C87.189,64.987 88.626,67.808 91.252,68.661C93.879,69.514 96.7,68.077 97.553,65.451L88.042,62.361ZM90,50C90,54.197 89.339,58.369 88.042,62.361L97.553,65.451C99.174,60.461 100,55.247 100,50L90,50Z" transform="rotate(0 50 50)" fill="#FFFFFF"/>
<path d="M100,50C100,47.239 97.761,45 95,45C92.239,45 90,47.239 90,50L100,50ZM88.042,62.361C87.189,64.987 88.626,67.808 91.252,68.661C93.879,69.514 96.7,68.077 97.553,65.451L88.042,62.361ZM90,50C90,54.197 89.339,58.369 88.042,62.361L97.553,65.451C99.174,60.461 100,55.247 100,50L90,50Z" transform="rotate(0 50 50)" fill="#FFFFFF"/>
<path d="M100,50C100,47.239 97.761,45 95,45C92.239,45 90,47.239 90,50L100,50ZM88.042,62.361C87.189,64.987 88.626,67.808 91.252,68.661C93.879,69.514 96.7,68.077 97.553,65.451L88.042,62.361ZM90,50C90,54.197 89.339,58.369 88.042,62.361L97.553,65.451C99.174,60.461 100,55.247 100,50L90,50Z" transform="rotate(0 50 50)" fill="#FFFFFF"/>
<path d="M100,50C100,47.239 97.761,45 95,45C92.239,45 90,47.239 90,50L100,50ZM88.042,62.361C87.189,64.987 88.626,67.808 91.252,68.661C93.879,69.514 96.7,68.077 97.553,65.451L88.042,62.361ZM90,50C90,54.197 89.339,58.369 88.042,62.361L97.553,65.451C99.174,60.461 100,55.247 100,50L90,50Z" transform="rotate(0 50 50)" fill="#FFFFFF"/>
<path d="M100,50C100,47.239 97.761,45 95,45C92.239,45 90,47.239 90,50L100,50ZM88.042,62.361C87.189,64.987 88.626,67.808 91.252,68.661C93.879,69.514 96.7,68.077 97.553,65.451L88.042,62.361ZM90,50C90,54.197 89.339,58.369 88.042,62.361L97.553,65.451C99.174,60.461 100,55.247 100,50L90,50Z" transform="rotate(0 50 50)" fill="#FFFFFF"/>
</svg>
