<svg width="48" height="54" viewBox="0 0 48 54" fill="none" xmlns="http://www.w3.org/2000/svg" xmlns:xlink="http://www.w3.org/1999/xlink">
<path d="M45,8.5C45,8.879 44.771,9.479 43.803,10.241C42.853,10.99 41.384,11.731 39.436,12.38C35.554,13.674 30.097,14.5 24,14.5L24,17.5C30.33,17.5 36.122,16.647 40.384,15.226C42.507,14.519 44.334,13.643 45.66,12.597C46.97,11.565 48,10.192 48,8.5L45,8.5ZM24,14.5C17.903,14.5 12.446,13.674 8.564,12.38C6.616,11.731 5.147,10.99 4.197,10.241C3.229,9.479 3,8.879 3,8.5L0,8.5C0,10.192 1.03,11.565 2.34,12.597C3.666,13.643 5.493,14.519 7.616,15.226C11.878,16.647 17.67,17.5 24,17.5L24,14.5ZM3,8.5C3,8.121 3.229,7.521 4.197,6.759C5.147,6.01 6.616,5.269 8.564,4.62C12.446,3.326 17.903,2.5 24,2.5L24,-0.5C17.67,-0.5 11.878,0.353 7.616,1.774C5.493,2.481 3.666,3.357 2.34,4.403C1.03,5.435 0,6.808 0,8.5L3,8.5ZM24,2.5C30.097,2.5 35.554,3.326 39.436,4.62C41.384,5.269 42.853,6.01 43.803,6.759C44.771,7.521 45,8.121 45,8.5L48,8.5C48,6.808 46.97,5.435 45.66,4.403C44.334,3.357 42.507,2.481 40.384,1.774C36.122,0.353 30.33,-0.5 24,-0.5L24,2.5Z" fill="#3A276A"/>
<path d="M48,26C48,25.172 47.328,24.5 46.5,24.5C45.672,24.5 45,25.172 45,26L48,26ZM3,26C3,25.172 2.328,24.5 1.5,24.5C0.672,24.5 0,25.172 0,26L3,26ZM45,26C45,26.386 44.77,26.987 43.811,27.747C42.866,28.495 41.406,29.235 39.463,29.883C35.592,31.176 30.135,32 24,32L24,35C30.365,35 36.158,34.149 40.412,32.729C42.532,32.022 44.352,31.145 45.674,30.098C46.98,29.063 48,27.689 48,26L45,26ZM24,32C17.865,32 12.408,31.176 8.538,29.883C6.594,29.235 5.134,28.495 4.189,27.747C3.23,26.987 3,26.386 3,26L0,26C0,27.689 1.02,29.063 2.326,30.098C3.648,31.145 5.468,32.022 7.587,32.729C11.842,34.149 17.635,35 24,35L24,32Z" fill="#3A276A"/>
<path d="M3,8.5C3,7.672 2.328,7 1.5,7C0.672,7 0,7.672 0,8.5L3,8.5ZM48,8.5C48,7.672 47.328,7 46.5,7C45.672,7 45,7.672 45,8.5L48,8.5ZM0,8.5L0,43.5L3,43.5L3,8.5L0,8.5ZM0,43.5C0,45.189 1.02,46.563 2.326,47.598C3.648,48.645 5.468,49.522 7.587,50.229C11.842,51.649 17.635,52.5 24,52.5L24,49.5C17.865,49.5 12.408,48.676 8.538,47.383C6.594,46.735 5.134,45.995 4.189,45.247C3.23,44.487 3,43.886 3,43.5L0,43.5ZM24,52.5C30.365,52.5 36.158,51.649 40.412,50.229C42.532,49.522 44.352,48.645 45.674,47.598C46.98,46.563 48,45.189 48,43.5L45,43.5C45,43.886 44.77,44.487 43.811,45.247C42.866,45.995 41.406,46.735 39.463,47.383C35.592,48.676 30.135,49.5 24,49.5L24,52.5ZM48,43.5L48,8.5L45,8.5L45,43.5L48,43.5Z" fill="#3A276A"/>
</svg>
