<svg width="42" height="58" viewBox="0 0 42 58" fill="none" xmlns="http://www.w3.org/2000/svg" xmlns:xlink="http://www.w3.org/1999/xlink">
<path d="M20.989,36.86C25.969,36.86 29.959,32.84 29.959,27.86L29.989,9.86C29.989,4.88 25.969,0.86 20.989,0.86C16.009,0.86 11.989,4.88 11.989,9.86L11.989,27.86C11.989,32.84 16.009,36.86 20.989,36.86ZM36.889,27.86C36.889,36.86 29.269,43.16 20.989,43.16C12.709,43.16 5.089,36.86 5.089,27.86L-0.011,27.86C-0.011,38.09 8.149,46.55 17.989,48.02L17.989,57.86L23.989,57.86L23.989,48.02C33.829,46.58 41.989,38.12 41.989,27.86L36.889,27.86Z" fill="#454647"/>
</svg>
