<svg width="54" height="42" viewBox="0 0 54 42" fill="none" xmlns="http://www.w3.org/2000/svg" xmlns:xlink="http://www.w3.org/1999/xlink">
<path d="M49.027,-0.341L15.127,-0.341C13.568,-0.341 12.347,0.45 11.534,1.648L-0.693,19.999L11.534,38.327C12.347,39.525 13.568,40.338 15.127,40.338L49.027,40.338C51.513,40.338 53.547,38.304 53.547,35.818L53.547,4.179C53.547,1.693 51.513,-0.341 49.027,-0.341ZM49.027,35.818L15.285,35.818L4.731,19.999L15.263,4.179L49.027,4.179L49.027,35.818ZM22.834,31.298L30.947,23.185L39.06,31.298L42.247,28.112L34.133,19.999L42.247,11.885L39.06,8.699L30.947,16.812L22.834,8.699L19.647,11.885L27.76,19.999L19.647,28.112L22.834,31.298Z" fill="#3D3D3F"/>
</svg>
