<svg width="86" height="76" viewBox="0 0 86 76" fill="none" xmlns="http://www.w3.org/2000/svg" xmlns:xlink="http://www.w3.org/1999/xlink">
<path d="M45.55,10.746C44.528,9.724 43.316,8.913 41.981,8.36C40.646,7.807 39.215,7.522 37.77,7.522C36.325,7.522 34.894,7.807 33.559,8.36C32.224,8.913 31.011,9.724 29.99,10.746L27.87,12.866L25.75,10.746C23.687,8.682 20.888,7.523 17.97,7.523C15.052,7.523 12.253,8.682 10.19,10.746C8.127,12.809 6.967,15.608 6.967,18.526C6.967,21.444 8.127,24.242 10.19,26.306L12.31,28.426L27.87,43.986L43.43,28.426L45.55,26.306C46.572,25.284 47.383,24.071 47.936,22.736C48.489,21.401 48.774,19.971 48.774,18.526C48.774,17.081 48.489,15.65 47.936,14.315C47.383,12.98 46.572,11.767 45.55,10.746Z" transform="rotate(-54.213 27.87 25.754)" fill="#7047A3"/>
<path d="M77.089,18.682C76.278,17.871 75.315,17.228 74.256,16.789C73.196,16.35 72.061,16.124 70.914,16.124C69.767,16.124 68.632,16.35 67.572,16.789C66.513,17.228 65.55,17.871 64.74,18.682L63.057,20.365L61.375,18.682C59.737,17.045 57.516,16.125 55.2,16.125C52.884,16.125 50.663,17.045 49.026,18.682C47.388,20.32 46.468,22.541 46.468,24.857C46.468,27.173 47.388,29.394 49.026,31.031L50.708,32.714L63.057,45.062L75.406,32.714L77.089,31.031C77.9,30.22 78.543,29.258 78.982,28.198C79.421,27.139 79.647,26.003 79.647,24.857C79.647,23.71 79.421,22.574 78.982,21.515C78.543,20.456 77.9,19.493 77.089,18.682Z" transform="rotate(76.553 63.058 30.593)" fill="#7047A3"/>
<path d="M53.141,50.34C52.404,49.602 51.529,49.017 50.565,48.618C49.602,48.219 48.57,48.014 47.527,48.014C46.485,48.014 45.452,48.219 44.489,48.618C43.526,49.017 42.651,49.602 41.914,50.34L40.385,51.869L38.855,50.34C37.366,48.851 35.347,48.014 33.242,48.014C31.136,48.014 29.117,48.851 27.628,50.34C26.14,51.828 25.303,53.847 25.303,55.953C25.303,58.058 26.14,60.077 27.628,61.566L29.158,63.096L40.385,74.322L51.611,63.096L53.141,61.566C53.878,60.829 54.463,59.954 54.862,58.991C55.261,58.028 55.467,56.995 55.467,55.953C55.467,54.91 55.261,53.878 54.862,52.915C54.463,51.952 53.878,51.077 53.141,50.34Z" fill="#7047A3"/>
</svg>
