<svg width="54" height="54" viewBox="0 0 54 54" fill="none" xmlns="http://www.w3.org/2000/svg" xmlns:xlink="http://www.w3.org/1999/xlink">
<path d="M49.5,26C49.5,38.979 38.979,49.5 26,49.5L26,52.5C40.636,52.5 52.5,40.636 52.5,26L49.5,26ZM26,49.5C13.021,49.5 2.5,38.979 2.5,26L-0.5,26C-0.5,40.636 11.364,52.5 26,52.5L26,49.5ZM2.5,26C2.5,13.021 13.021,2.5 26,2.5L26,-0.5C11.364,-0.5 -0.5,11.364 -0.5,26L2.5,26ZM26,2.5C38.979,2.5 49.5,13.021 49.5,26L52.5,26C52.5,11.364 40.636,-0.5 26,-0.5L26,2.5Z" fill="#3A276A"/>
<line x1="24" y1="26" x2="24" y2="36" stroke="#3A276A" stroke-width="2" stroke-miterlimit="3.999327" stroke-linecap="round" stroke-linejoin="round"/>
<line x1="26" y1="14" x2="26.026" y2="14" stroke="#3A276A" stroke-width="2" stroke-miterlimit="3.999327" stroke-linecap="round" stroke-linejoin="round"/>
</svg>
