<svg width="24" height="24" viewBox="0 0 24 24" fill="none" xmlns="http://www.w3.org/2000/svg" xmlns:xlink="http://www.w3.org/1999/xlink">
<path d="M20.839,0.154L1.349,9.148C0.875,9.359 0.488,9.725 0.251,10.187C0.014,10.648 -0.058,11.177 0.047,11.685C0.152,12.192 0.428,12.649 0.829,12.979C1.229,13.308 1.73,13.491 2.249,13.496L10.495,13.496L10.495,21.742C10.5,22.261 10.683,22.762 11.012,23.162C11.342,23.563 11.799,23.839 12.306,23.944C12.814,24.049 13.343,23.977 13.804,23.74C14.266,23.504 14.632,23.116 14.843,22.642L23.843,3.152C23.997,2.733 24.027,2.279 23.931,1.844C23.835,1.408 23.617,1.009 23.301,0.694C22.986,0.378 22.587,0.16 22.151,0.064C21.716,-0.032 21.262,-0.002 20.843,0.152L20.839,0.154Z" fill="#000000"/>
</svg>
