<svg width="668" height="616" viewBox="0 0 668 616" fill="none" xmlns="http://www.w3.org/2000/svg" xmlns:xlink="http://www.w3.org/1999/xlink">
<path d="M666,440.833C666,463.664 648.091,482.172 626,482.172C603.909,482.172 586,463.664 586,440.833C586,418.001 603.909,399.493 626,399.493C648.091,399.493 666,418.001 666,440.833Z" fill="#ECECEC"/>
<path d="M568,440.833C568,463.664 550.091,482.172 528,482.172C505.909,482.172 488,463.664 488,440.833C488,418.001 505.909,399.493 528,399.493C550.091,399.493 568,418.001 568,440.833Z" fill="#ECECEC"/>
<path d="M474,440.833C474,463.664 456.091,482.172 434,482.172C411.909,482.172 394,463.664 394,440.833C394,418.001 411.909,399.493 434,399.493C456.091,399.493 474,418.001 474,440.833Z" fill="#ECECEC"/>
<path d="M274,573.12C274,595.951 256.091,614.459 234,614.459C211.909,614.459 194,595.951 194,573.12C194,550.288 211.909,531.78 234,531.78C256.091,531.78 274,550.288 274,573.12Z" fill="#ECECEC"/>
<path d="M176,573.12C176,595.951 158.091,614.459 136,614.459C113.909,614.459 96,595.951 96,573.12C96,550.288 113.909,531.78 136,531.78C158.091,531.78 176,550.288 176,573.12Z" fill="#ECECEC"/>
<path d="M80,573.12C80,595.951 62.091,614.459 40,614.459C17.909,614.459 0,595.951 0,573.12C0,550.288 17.909,531.78 40,531.78C62.091,531.78 80,550.288 80,573.12Z" fill="#ECECEC"/>
<path d="M80,306.479C80,329.31 62.091,347.818 40,347.818C17.909,347.818 0,329.31 0,306.479C0,283.647 17.909,265.139 40,265.139C62.091,265.139 80,283.647 80,306.479Z" fill="#ECECEC"/>
<path d="M178,306.479C178,329.31 160.091,347.818 138,347.818C115.909,347.818 98,329.31 98,306.479C98,283.647 115.909,265.139 138,265.139C160.091,265.139 178,283.647 178,306.479Z" fill="#ECECEC"/>
<path d="M274,306.479C274,329.31 256.091,347.818 234,347.818C211.909,347.818 194,329.31 194,306.479C194,283.647 211.909,265.139 234,265.139C256.091,265.139 274,283.647 274,306.479Z" fill="#ECECEC"/>
<path d="M372,306.479C372,329.31 354.091,347.818 332,347.818C309.909,347.818 292,329.31 292,306.479C292,283.647 309.909,265.139 332,265.139C354.091,265.139 372,283.647 372,306.479Z" fill="#ECECEC"/>
<path d="M470,306.479C470,329.31 452.091,347.818 430,347.818C407.909,347.818 390,329.31 390,306.479C390,283.647 407.909,265.139 430,265.139C452.091,265.139 470,283.647 470,306.479Z" fill="#ECECEC"/>
<path d="M568,306.479C568,329.31 550.091,347.818 528,347.818C505.909,347.818 488,329.31 488,306.479C488,283.647 505.909,265.139 528,265.139C550.091,265.139 568,283.647 568,306.479Z" fill="#ECECEC"/>
<path d="M668,172.124C668,194.956 650.091,213.464 628,213.464C605.909,213.464 588,194.956 588,172.124C588,149.293 605.909,130.785 628,130.785C650.091,130.785 668,149.293 668,172.124Z" fill="#ECECEC"/>
<path d="M568,172.124C568,194.956 550.091,213.464 528,213.464C505.909,213.464 488,194.956 488,172.124C488,149.293 505.909,130.785 528,130.785C550.091,130.785 568,149.293 568,172.124Z" fill="#ECECEC"/>
<path d="M472,172.124C472,194.956 454.091,213.464 432,213.464C409.909,213.464 392,194.956 392,172.124C392,149.293 409.909,130.785 432,130.785C454.091,130.785 472,149.293 472,172.124Z" fill="#ECECEC"/>
<path d="M372,172.124C372,194.956 354.091,213.464 332,213.464C309.909,213.464 292,194.956 292,172.124C292,149.293 309.909,130.785 332,130.785C354.091,130.785 372,149.293 372,172.124Z" fill="#ECECEC"/>
<path d="M274,172.124C274,194.956 256.091,213.464 234,213.464C211.909,213.464 194,194.956 194,172.124C194,149.293 211.909,130.785 234,130.785C256.091,130.785 274,149.293 274,172.124Z" fill="#ECECEC"/>
<path d="M178,172.124C178,194.956 160.091,213.464 138,213.464C115.909,213.464 98,194.956 98,172.124C98,149.293 115.909,130.785 138,130.785C160.091,130.785 178,149.293 178,172.124Z" fill="#ECECEC"/>
<path d="M80,172.124C80,194.956 62.091,213.464 40,213.464C17.909,213.464 0,194.956 0,172.124C0,149.293 17.909,130.785 40,130.785C62.091,130.785 80,149.293 80,172.124Z" fill="#ECECEC"/>
<path d="M568,41.904C568,64.736 550.091,83.244 528,83.244C505.909,83.244 488,64.736 488,41.904C488,19.073 505.909,0.565 528,0.565C550.091,0.565 568,19.073 568,41.904Z" fill="#ECECEC"/>
</svg>
