<svg width="66" height="66" viewBox="0 0 66 66" fill="none" xmlns="http://www.w3.org/2000/svg" xmlns:xlink="http://www.w3.org/1999/xlink">
<path d="M39.057,31.997C39.057,35.85 35.934,38.974 32.081,38.974L32.081,41.974C37.59,41.974 42.057,37.507 42.057,31.997L39.057,31.997ZM32.081,38.974C28.228,38.974 25.104,35.85 25.104,31.997L22.104,31.997C22.104,37.507 26.571,41.974 32.081,41.974L32.081,38.974ZM25.104,31.997C25.104,28.144 28.228,25.021 32.081,25.021L32.081,22.021C26.571,22.021 22.104,26.488 22.104,31.997L25.104,31.997ZM32.081,25.021C35.934,25.021 39.057,28.144 39.057,31.997L42.057,31.997C42.057,26.488 37.59,22.021 32.081,22.021L32.081,25.021Z" fill="#FFFFFF"/>
<path d="M52.855,40.371L54.227,40.977L54.233,40.962L52.855,40.371ZM53.785,45.5L52.712,46.549L52.724,46.561L53.785,45.5ZM53.954,45.67L52.893,46.73L52.894,46.731L53.954,45.67ZM53.954,53.645L52.894,52.584L52.892,52.585L53.954,53.645ZM45.978,53.645L47.039,52.585L47.039,52.584L45.978,53.645ZM45.809,53.476L46.87,52.415L46.858,52.404L45.809,53.476ZM40.68,52.546L41.271,53.925L41.286,53.918L40.68,52.546ZM37.862,56.801L36.362,56.795L36.362,56.801L37.862,56.801ZM26.589,57.027L28.089,57.027C28.089,57.015 28.089,57.003 28.089,56.992L26.589,57.027ZM23.545,52.771L22.94,54.144C22.969,54.156 22.998,54.168 23.028,54.179L23.545,52.771ZM18.416,53.701L17.367,52.629L17.356,52.641L18.416,53.701ZM18.247,53.87L17.187,52.81L17.186,52.81L18.247,53.87ZM10.272,53.87L11.333,52.81L11.332,52.809L10.272,53.87ZM8.619,49.883L10.119,49.883L8.619,49.883ZM10.272,45.895L11.332,46.956L11.332,46.956L10.272,45.895ZM10.441,45.726L11.502,46.787L11.513,46.775L10.441,45.726ZM11.371,40.597L9.992,41.188L9.999,41.202L11.371,40.597ZM7.115,37.779L7.121,36.279L7.115,36.279L7.115,37.779ZM1,32.142L-0.5,32.142L1,32.142ZM6.636,26.506L6.636,28.006L6.636,26.506ZM6.89,26.506L6.89,28.006C6.902,28.006 6.913,28.006 6.925,28.005L6.89,26.506ZM11.145,23.462L9.773,22.857C9.76,22.886 9.749,22.915 9.738,22.944L11.145,23.462ZM10.215,18.333L11.288,17.284L11.276,17.272L10.215,18.333ZM10.046,18.164L11.107,17.103L11.106,17.103L10.046,18.164ZM10.046,10.189L11.106,11.25L11.108,11.249L10.046,10.189ZM18.022,10.189L16.961,11.249L16.961,11.249L18.022,10.189ZM18.191,10.358L17.13,11.418L17.142,11.43L18.191,10.358ZM23.32,11.288L23.32,9.788C23.111,9.788 22.905,9.831 22.714,9.915L23.32,11.288ZM23.545,11.288L23.545,12.788C23.749,12.788 23.95,12.746 24.136,12.666L23.545,11.288ZM26.364,7.032L27.864,7.038L27.864,7.032L26.364,7.032ZM32,0.917L32,-0.583L32,0.917ZM37.636,6.807L36.136,6.807L36.136,6.813L37.636,6.807ZM40.455,11.062L41.06,9.69L41.045,9.683L40.455,11.062ZM45.584,10.132L46.633,11.205L46.644,11.193L45.584,10.132ZM45.753,9.963L46.813,11.024L46.814,11.023L45.753,9.963ZM49.74,8.31L49.74,9.81L49.74,8.31ZM53.728,9.963L52.667,11.023L52.668,11.024L53.728,9.963ZM53.728,17.939L52.668,16.877L52.668,16.878L53.728,17.939ZM53.559,18.108L52.498,17.047L52.487,17.059L53.559,18.108ZM52.629,23.237L54.129,23.237C54.129,23.028 54.086,22.822 54.001,22.631L52.629,23.237ZM52.629,23.462L51.129,23.462C51.129,23.665 51.17,23.866 51.25,24.053L52.629,23.462ZM56.885,26.28L56.879,27.78L56.885,27.78L56.885,26.28ZM57.11,37.553L57.11,36.053L57.104,36.053L57.11,37.553ZM51.482,39.766C50.986,40.89 50.838,42.137 51.057,43.346L54.009,42.811C53.897,42.192 53.973,41.553 54.227,40.977L51.482,39.766ZM51.057,43.346C51.277,44.555 51.853,45.671 52.712,46.549L54.857,44.452C54.417,44.002 54.121,43.43 54.009,42.811L51.057,43.346ZM52.724,46.561L52.893,46.73L55.014,44.609L54.845,44.44L52.724,46.561ZM52.894,46.731C53.278,47.115 53.583,47.571 53.791,48.073L56.563,46.924C56.204,46.058 55.677,45.271 55.014,44.608L52.894,46.731ZM53.791,48.073C54,48.575 54.107,49.114 54.107,49.657L57.107,49.657C57.107,48.719 56.922,47.791 56.563,46.924L53.791,48.073ZM54.107,49.657C54.107,50.201 54,50.739 53.791,51.241L56.563,52.39C56.922,51.524 57.107,50.595 57.107,49.657L54.107,49.657ZM53.791,51.241C53.583,51.743 53.278,52.2 52.894,52.584L55.014,54.706C55.677,54.043 56.204,53.256 56.563,52.39L53.791,51.241ZM52.892,52.585C52.508,52.969 52.052,53.275 51.55,53.483L52.699,56.254C53.565,55.895 54.352,55.369 55.015,54.705L52.892,52.585ZM51.55,53.483C51.048,53.691 50.509,53.798 49.966,53.798L49.966,56.798C50.904,56.798 51.832,56.613 52.699,56.254L51.55,53.483ZM49.966,53.798C49.422,53.798 48.884,53.691 48.382,53.483L47.233,56.254C48.099,56.613 49.028,56.798 49.966,56.798L49.966,53.798ZM48.382,53.483C47.88,53.275 47.424,52.969 47.039,52.585L44.917,54.705C45.58,55.369 46.367,55.895 47.233,56.254L48.382,53.483ZM47.039,52.584L46.87,52.415L44.748,54.537L44.918,54.706L47.039,52.584ZM46.858,52.404C45.98,51.544 44.864,50.968 43.655,50.749L43.119,53.701C43.739,53.813 44.31,54.108 44.76,54.548L46.858,52.404ZM43.655,50.749C42.446,50.529 41.199,50.677 40.074,51.174L41.286,53.918C41.861,53.664 42.5,53.588 43.119,53.701L43.655,50.749ZM40.089,51.167C38.987,51.64 38.046,52.424 37.384,53.424L39.885,55.081C40.225,54.568 40.706,54.167 41.271,53.925L40.089,51.167ZM37.384,53.424C36.722,54.424 36.367,55.596 36.362,56.795L39.362,56.807C39.364,56.193 39.546,55.593 39.885,55.081L37.384,53.424ZM36.362,56.801L36.362,57.28L39.362,57.28L39.362,56.801L36.362,56.801ZM36.362,57.28C36.362,58.377 35.926,59.43 35.15,60.205L37.272,62.327C38.61,60.988 39.362,59.173 39.362,57.28L36.362,57.28ZM35.15,60.205C34.375,60.981 33.322,61.417 32.225,61.417L32.225,64.417C34.118,64.417 35.933,63.665 37.272,62.327L35.15,60.205ZM32.225,61.417C31.128,61.417 30.076,60.981 29.301,60.205L27.179,62.327C28.518,63.665 30.333,64.417 32.225,64.417L32.225,61.417ZM29.301,60.205C28.525,59.43 28.089,58.377 28.089,57.28L25.089,57.28C25.089,59.173 25.841,60.988 27.179,62.327L29.301,60.205ZM28.089,57.28L28.089,57.027L25.089,57.027L25.089,57.28L28.089,57.28ZM28.089,56.992C28.06,55.758 27.66,54.562 26.943,53.558L24.502,55.303C24.87,55.817 25.075,56.43 25.09,57.062L28.089,56.992ZM26.943,53.558C26.225,52.554 25.221,51.79 24.063,51.364L23.028,54.179C23.621,54.397 24.135,54.789 24.502,55.303L26.943,53.558ZM24.151,51.399C23.027,50.903 21.78,50.755 20.571,50.974L21.106,53.926C21.725,53.814 22.364,53.89 22.94,54.144L24.151,51.399ZM20.571,50.974C19.362,51.193 18.246,51.77 17.367,52.629L19.465,54.774C19.915,54.334 20.487,54.038 21.106,53.926L20.571,50.974ZM17.356,52.641L17.187,52.81L19.308,54.931L19.477,54.762L17.356,52.641ZM17.186,52.81C16.802,53.195 16.346,53.5 15.844,53.708L16.992,56.48C17.859,56.12 18.646,55.594 19.309,54.931L17.186,52.81ZM15.844,53.708C15.341,53.916 14.803,54.024 14.26,54.024L14.26,57.024C15.197,57.024 16.126,56.839 16.992,56.48L15.844,53.708ZM14.26,54.024C13.716,54.024 13.178,53.916 12.676,53.708L11.527,56.48C12.393,56.839 13.322,57.024 14.26,57.024L14.26,54.024ZM12.676,53.708C12.173,53.5 11.717,53.195 11.333,52.81L9.211,54.931C9.873,55.594 10.66,56.12 11.527,56.48L12.676,53.708ZM11.332,52.809C10.947,52.425 10.642,51.969 10.434,51.467L7.663,52.616C8.022,53.482 8.548,54.269 9.212,54.932L11.332,52.809ZM10.434,51.467C10.226,50.965 10.119,50.426 10.119,49.883L7.119,49.883C7.119,50.821 7.304,51.749 7.663,52.616L10.434,51.467ZM10.119,49.883C10.119,49.339 10.226,48.801 10.434,48.299L7.663,47.15C7.304,48.016 7.119,48.945 7.119,49.883L10.119,49.883ZM10.434,48.299C10.642,47.797 10.947,47.34 11.332,46.956L9.212,44.834C8.548,45.497 8.022,46.284 7.663,47.15L10.434,48.299ZM11.332,46.956L11.502,46.787L9.38,44.665L9.211,44.834L11.332,46.956ZM11.513,46.775C12.372,45.896 12.949,44.781 13.168,43.572L10.216,43.036C10.104,43.656 9.809,44.227 9.369,44.677L11.513,46.775ZM13.168,43.572C13.387,42.362 13.239,41.115 12.743,39.991L9.999,41.202C10.253,41.778 10.329,42.417 10.216,43.036L13.168,43.572ZM12.75,40.006C12.277,38.903 11.493,37.963 10.493,37.301L8.836,39.802C9.348,40.141 9.75,40.623 9.992,41.188L12.75,40.006ZM10.493,37.301C9.493,36.639 8.321,36.283 7.121,36.279L7.109,39.279C7.724,39.281 8.324,39.463 8.836,39.802L10.493,37.301ZM7.115,36.279L6.636,36.279L6.636,39.279L7.115,39.279L7.115,36.279ZM6.636,36.279C5.539,36.279 4.487,35.843 3.712,35.067L1.59,37.188C2.929,38.527 4.744,39.279 6.636,39.279L6.636,36.279ZM3.712,35.067C2.936,34.291 2.5,33.239 2.5,32.142L-0.5,32.142C-0.5,34.035 0.252,35.85 1.59,37.188L3.712,35.067ZM2.5,32.142C2.5,31.045 2.936,29.993 3.712,29.217L1.59,27.096C0.252,28.434 -0.5,30.25 -0.5,32.142L2.5,32.142ZM3.712,29.217C4.487,28.442 5.539,28.006 6.636,28.006L6.636,25.006C4.744,25.006 2.929,25.758 1.59,27.096L3.712,29.217ZM6.636,28.006L6.89,28.006L6.89,25.006L6.636,25.006L6.636,28.006ZM6.925,28.005C8.159,27.977 9.355,27.577 10.359,26.859L8.614,24.419C8.1,24.787 7.487,24.992 6.855,25.006L6.925,28.005ZM10.359,26.859C11.363,26.141 12.127,25.138 12.553,23.98L9.738,22.944C9.519,23.538 9.128,24.052 8.614,24.419L10.359,26.859ZM12.518,24.068C13.014,22.944 13.162,21.697 12.943,20.487L9.991,21.023C10.103,21.642 10.027,22.281 9.773,22.857L12.518,24.068ZM12.943,20.487C12.723,19.278 12.147,18.163 11.288,17.284L9.143,19.382C9.583,19.832 9.879,20.403 9.991,21.023L12.943,20.487ZM11.276,17.272L11.107,17.103L8.986,19.225L9.155,19.394L11.276,17.272ZM11.106,17.103C10.722,16.719 10.417,16.262 10.209,15.76L7.437,16.909C7.796,17.775 8.323,18.562 8.986,19.225L11.106,17.103ZM10.209,15.76C10,15.258 9.893,14.72 9.893,14.176L6.893,14.176C6.893,15.114 7.078,16.043 7.437,16.909L10.209,15.76ZM9.893,14.176C9.893,13.633 10,13.094 10.209,12.592L7.437,11.443C7.078,12.31 6.893,13.238 6.893,14.176L9.893,14.176ZM10.209,12.592C10.417,12.09 10.722,11.634 11.106,11.25L8.986,9.127C8.323,9.79 7.796,10.577 7.437,11.443L10.209,12.592ZM11.108,11.249C11.492,10.864 11.948,10.559 12.45,10.351L11.301,7.579C10.435,7.939 9.648,8.465 8.985,9.128L11.108,11.249ZM12.45,10.351C12.952,10.143 13.491,10.035 14.034,10.035L14.034,7.035C13.096,7.035 12.168,7.22 11.301,7.579L12.45,10.351ZM14.034,10.035C14.578,10.035 15.116,10.143 15.618,10.351L16.767,7.579C15.901,7.22 14.972,7.035 14.034,7.035L14.034,10.035ZM15.618,10.351C16.12,10.559 16.576,10.864 16.961,11.249L19.083,9.128C18.42,8.465 17.633,7.939 16.767,7.579L15.618,10.351ZM16.961,11.249L17.13,11.418L19.252,9.297L19.082,9.128L16.961,11.249ZM17.142,11.43C18.02,12.289 19.136,12.866 20.345,13.085L20.881,10.133C20.261,10.021 19.69,9.725 19.24,9.285L17.142,11.43ZM20.345,13.085C21.554,13.304 22.801,13.156 23.926,12.66L22.714,9.915C22.139,10.169 21.5,10.245 20.881,10.133L20.345,13.085ZM23.32,12.788L23.545,12.788L23.545,9.788L23.32,9.788L23.32,12.788ZM24.136,12.666C25.239,12.194 26.179,11.409 26.841,10.409L24.34,8.753C24.001,9.265 23.519,9.667 22.955,9.909L24.136,12.666ZM26.841,10.409C27.503,9.409 27.859,8.238 27.864,7.038L24.864,7.026C24.861,7.641 24.679,8.241 24.34,8.753L26.841,10.409ZM27.864,7.032L27.864,6.553L24.864,6.553L24.864,7.032L27.864,7.032ZM27.864,6.553C27.864,5.456 28.299,4.404 29.075,3.628L26.954,1.507C25.616,2.845 24.864,4.66 24.864,6.553L27.864,6.553ZM29.075,3.628C29.851,2.853 30.903,2.417 32,2.417L32,-0.583C30.107,-0.583 28.292,0.169 26.954,1.507L29.075,3.628ZM32,2.417C33.097,2.417 34.149,2.853 34.925,3.628L37.046,1.507C35.708,0.169 33.893,-0.583 32,-0.583L32,2.417ZM34.925,3.628C35.701,4.404 36.136,5.456 36.136,6.553L39.136,6.553C39.136,4.66 38.384,2.845 37.046,1.507L34.925,3.628ZM36.136,6.553L36.136,6.807L39.136,6.807L39.136,6.553L36.136,6.553ZM36.136,6.813C36.141,8.012 36.497,9.184 37.159,10.184L39.66,8.527C39.321,8.015 39.139,7.415 39.136,6.801L36.136,6.813ZM37.159,10.184C37.821,11.184 38.761,11.968 39.864,12.441L41.045,9.683C40.481,9.441 39.999,9.04 39.66,8.527L37.159,10.184ZM39.849,12.434C40.973,12.931 42.22,13.079 43.429,12.859L42.894,9.908C42.275,10.02 41.636,9.944 41.06,9.69L39.849,12.434ZM43.429,12.859C44.638,12.64 45.754,12.064 46.633,11.204L44.535,9.06C44.085,9.5 43.513,9.795 42.894,9.908L43.429,12.859ZM46.644,11.193L46.813,11.024L44.692,8.902L44.523,9.072L46.644,11.193ZM46.814,11.023C47.198,10.639 47.654,10.334 48.156,10.125L47.008,7.354C46.141,7.713 45.354,8.24 44.691,8.903L46.814,11.023ZM48.156,10.125C48.659,9.917 49.197,9.81 49.74,9.81L49.74,6.81C48.803,6.81 47.874,6.995 47.008,7.354L48.156,10.125ZM49.74,9.81C50.284,9.81 50.822,9.917 51.324,10.125L52.473,7.354C51.607,6.995 50.678,6.81 49.74,6.81L49.74,9.81ZM51.324,10.125C51.827,10.334 52.283,10.639 52.667,11.023L54.789,8.903C54.127,8.24 53.34,7.713 52.473,7.354L51.324,10.125ZM52.668,11.024C53.053,11.409 53.358,11.865 53.566,12.367L56.337,11.218C55.978,10.352 55.452,9.565 54.788,8.902L52.668,11.024ZM53.566,12.367C53.774,12.869 53.881,13.407 53.881,13.951L56.881,13.951C56.881,13.013 56.696,12.084 56.337,11.218L53.566,12.367ZM53.881,13.951C53.881,14.494 53.774,15.033 53.566,15.535L56.337,16.684C56.696,15.817 56.881,14.889 56.881,13.951L53.881,13.951ZM53.566,15.535C53.358,16.037 53.053,16.493 52.668,16.877L54.788,19C55.452,18.337 55.978,17.55 56.337,16.684L53.566,15.535ZM52.668,16.878L52.498,17.047L54.62,19.168L54.789,18.999L52.668,16.878ZM52.487,17.059C51.628,17.937 51.051,19.053 50.832,20.262L53.784,20.797C53.896,20.178 54.191,19.606 54.631,19.157L52.487,17.059ZM50.832,20.262C50.613,21.471 50.761,22.718 51.257,23.842L54.001,22.631C53.747,22.055 53.671,21.417 53.784,20.797L50.832,20.262ZM51.129,23.237L51.129,23.462L54.129,23.462L54.129,23.237L51.129,23.237ZM51.25,24.053C51.723,25.156 52.507,26.096 53.507,26.758L55.164,24.257C54.652,23.918 54.25,23.436 54.008,22.871L51.25,24.053ZM53.507,26.758C54.507,27.42 55.679,27.776 56.879,27.78L56.891,24.78C56.276,24.778 55.676,24.596 55.164,24.257L53.507,26.758ZM56.885,27.78L57.364,27.78L57.364,24.78L56.885,24.78L56.885,27.78ZM57.364,27.78C58.461,27.78 59.513,28.216 60.288,28.992L62.41,26.871C61.071,25.532 59.256,24.78 57.364,24.78L57.364,27.78ZM60.288,28.992C61.064,29.768 61.5,30.82 61.5,31.917L64.5,31.917C64.5,30.024 63.748,28.209 62.41,26.871L60.288,28.992ZM61.5,31.917C61.5,33.014 61.064,34.066 60.288,34.842L62.41,36.963C63.748,35.625 64.5,33.809 64.5,31.917L61.5,31.917ZM60.288,34.842C59.513,35.617 58.461,36.053 57.364,36.053L57.364,39.053C59.256,39.053 61.071,38.301 62.41,36.963L60.288,34.842ZM57.364,36.053L57.11,36.053L57.11,39.053L57.364,39.053L57.364,36.053ZM57.104,36.053C55.905,36.058 54.733,36.413 53.733,37.076L55.389,39.577C55.901,39.238 56.502,39.056 57.116,39.053L57.104,36.053ZM53.733,37.076C52.733,37.738 51.948,38.678 51.476,39.78L54.233,40.962C54.475,40.398 54.877,39.916 55.389,39.577L53.733,37.076Z" fill="#FFFFFF"/>
</svg>
