<svg width="64" height="64" viewBox="0 0 64 64" fill="none" xmlns="http://www.w3.org/2000/svg" xmlns:xlink="http://www.w3.org/1999/xlink">
<path d="M58.333,31.167C58.333,46.17 46.17,58.333 31.167,58.333L31.167,62.333C48.38,62.333 62.333,48.38 62.333,31.167L58.333,31.167ZM31.167,58.333C16.163,58.333 4,46.17 4,31.167L0,31.167C0,48.38 13.954,62.333 31.167,62.333L31.167,58.333ZM4,31.167C4,16.163 16.163,4 31.167,4L31.167,0C13.954,0 0,13.954 0,31.167L4,31.167ZM31.167,4C46.17,4 58.333,16.163 58.333,31.167L62.333,31.167C62.333,13.954 48.38,0 31.167,0L31.167,4Z" fill="#3A276A"/>
<path d="M11.96,9.132C11.179,8.351 9.913,8.351 9.132,9.132C8.351,9.913 8.351,11.179 9.132,11.96L11.96,9.132ZM50.373,53.202C51.154,53.983 52.421,53.983 53.202,53.202C53.983,52.421 53.983,51.154 53.202,50.373L50.373,53.202ZM9.132,11.96L50.373,53.202L53.202,50.373L11.96,9.132L9.132,11.96Z" fill="#3A276A"/>
</svg>
