<svg width="90" height="90" viewBox="0 0 90 90" fill="none" xmlns="http://www.w3.org/2000/svg" xmlns:xlink="http://www.w3.org/1999/xlink">
<path d="M66.631,44.774C66.631,57.12 56.843,67.032 44.885,67.032L44.885,72.421C59.924,72.421 72.021,59.99 72.021,44.774L66.631,44.774ZM44.885,67.032C32.927,67.032 23.139,57.12 23.139,44.774L17.749,44.774C17.749,59.99 29.846,72.421 44.885,72.421L44.885,67.032ZM23.139,44.774C23.139,32.429 32.927,22.517 44.885,22.517L44.885,17.127C29.846,17.127 17.749,29.558 17.749,44.774L23.139,44.774ZM44.885,22.517C56.843,22.517 66.631,32.429 66.631,44.774L72.021,44.774C72.021,29.558 59.924,17.127 44.885,17.127L44.885,22.517Z" fill="#5E5E5E"/>
<path d="M37.281,48.169C36.4,46.97 34.713,46.712 33.513,47.593C32.314,48.474 32.056,50.161 32.937,51.36L37.281,48.169ZM56.833,51.36C57.714,50.161 57.456,48.474 56.257,47.593C55.057,46.712 53.371,46.97 52.49,48.169L56.833,51.36ZM35.109,49.765C32.937,51.36 32.938,51.361 32.938,51.362C32.939,51.362 32.939,51.363 32.94,51.364C32.941,51.365 32.942,51.367 32.943,51.368C32.945,51.371 32.947,51.374 32.95,51.378C32.955,51.385 32.961,51.393 32.968,51.402C32.982,51.421 33,51.444 33.022,51.472C33.065,51.528 33.124,51.602 33.197,51.691C33.343,51.868 33.549,52.108 33.812,52.389C34.338,52.949 35.105,53.686 36.099,54.424C38.075,55.891 41.072,57.45 44.885,57.45L44.885,52.06C42.589,52.06 40.697,51.125 39.312,50.096C38.626,49.587 38.095,49.076 37.742,48.7C37.567,48.513 37.438,48.363 37.36,48.268C37.321,48.22 37.295,48.187 37.281,48.17C37.274,48.161 37.271,48.156 37.271,48.156C37.271,48.156 37.272,48.157 37.273,48.159C37.274,48.161 37.275,48.162 37.276,48.164C37.277,48.164 37.278,48.165 37.278,48.166C37.279,48.167 37.279,48.168 37.279,48.168C37.28,48.169 37.281,48.169 35.109,49.765ZM44.885,57.45C48.699,57.45 51.695,55.891 53.671,54.424C54.665,53.686 55.433,52.949 55.958,52.389C56.222,52.108 56.428,51.868 56.574,51.691C56.647,51.602 56.705,51.528 56.748,51.472C56.77,51.444 56.788,51.421 56.802,51.402C56.809,51.393 56.815,51.385 56.82,51.378C56.823,51.374 56.825,51.371 56.828,51.368C56.829,51.367 56.83,51.365 56.831,51.364C56.831,51.363 56.832,51.362 56.832,51.362C56.833,51.361 56.833,51.36 54.661,49.765C52.49,48.169 52.49,48.169 52.491,48.168C52.491,48.168 52.492,48.167 52.492,48.166C52.493,48.165 52.493,48.164 52.494,48.164C52.495,48.162 52.496,48.161 52.497,48.159C52.499,48.157 52.499,48.156 52.499,48.156C52.499,48.156 52.496,48.161 52.489,48.17C52.476,48.187 52.449,48.22 52.41,48.268C52.332,48.363 52.204,48.513 52.028,48.7C51.675,49.076 51.145,49.587 50.458,50.096C49.074,51.125 47.182,52.06 44.885,52.06L44.885,57.45Z" fill="#5E5E5E"/>
<line x1="37.553" y1="34.594" x2="37.584" y2="34.594" stroke="#5E5E5E" stroke-width="2.695" stroke-miterlimit="3.999327" stroke-linecap="round" stroke-linejoin="round"/>
<line x1="52.218" y1="34.594" x2="52.249" y2="34.594" stroke="#5E5E5E" stroke-width="2.695" stroke-miterlimit="3.999327" stroke-linecap="round" stroke-linejoin="round"/>
</svg>
