<svg width="56" height="64" viewBox="0 0 56 64" fill="none" xmlns="http://www.w3.org/2000/svg" xmlns:xlink="http://www.w3.org/1999/xlink">
<path d="M-0.429,36.571C-0.429,43.846 2.461,50.823 7.605,55.966C12.749,61.11 19.725,64 27,64C27,48.762 14.718,36.571 -0.429,36.571ZM27,13.714C29.021,13.714 30.959,14.517 32.387,15.946C33.816,17.375 34.619,19.313 34.619,21.333C34.619,23.354 33.816,25.292 32.387,26.721C30.959,28.15 29.021,28.952 27,28.952C24.979,28.952 23.041,28.15 21.612,26.721C20.184,25.292 19.381,23.354 19.381,21.333C19.381,19.313 20.184,17.375 21.612,15.946C23.041,14.517 24.979,13.714 27,13.714ZM7.495,28.19C7.495,30.211 8.298,32.149 9.727,33.578C11.156,35.007 13.094,35.81 15.114,35.81C16.73,35.81 18.223,35.291 19.381,34.469L19.381,35.048C19.381,37.068 20.184,39.006 21.612,40.435C23.041,41.864 24.979,42.667 27,42.667C29.021,42.667 30.959,41.864 32.387,40.435C33.816,39.006 34.619,37.068 34.619,35.048L34.619,34.469C35.777,35.291 37.27,35.81 38.886,35.81C40.906,35.81 42.844,35.007 44.273,33.578C45.702,32.149 46.505,30.211 46.505,28.19C46.505,25.143 44.707,22.552 42.147,21.333C44.707,20.114 46.505,17.493 46.505,14.476C46.505,12.456 45.702,10.518 44.273,9.089C42.844,7.66 40.906,6.857 38.886,6.857C37.27,6.857 35.777,7.345 34.619,8.198L34.619,7.619C34.619,5.598 33.816,3.66 32.387,2.232C30.959,0.803 29.021,0 27,0C24.979,0 23.041,0.803 21.612,2.232C20.184,3.66 19.381,5.598 19.381,7.619L19.381,8.198C18.223,7.345 16.73,6.857 15.114,6.857C13.094,6.857 11.156,7.66 9.727,9.089C8.298,10.518 7.495,12.456 7.495,14.476C7.495,17.493 9.293,20.114 11.853,21.333C9.293,22.552 7.495,25.143 7.495,28.19ZM27,64C34.274,64 41.251,61.11 46.395,55.966C51.539,50.823 54.429,43.846 54.429,36.571C39.19,36.571 27,48.762 27,64Z" fill="#C679D0"/>
</svg>
