<svg width="48" height="48" viewBox="0 0 48 48" fill="none" xmlns="http://www.w3.org/2000/svg" xmlns:xlink="http://www.w3.org/1999/xlink">
<path d="M24,13.167C18.02,13.167 13.167,18.02 13.167,24C13.167,29.98 18.02,34.833 24,34.833C29.98,34.833 34.833,29.98 34.833,24C34.833,18.02 29.98,13.167 24,13.167ZM2.333,26.167L6.667,26.167C7.858,26.167 8.833,25.192 8.833,24C8.833,22.808 7.858,21.833 6.667,21.833L2.333,21.833C1.142,21.833 0.167,22.808 0.167,24C0.167,25.192 1.142,26.167 2.333,26.167ZM41.333,26.167L45.667,26.167C46.858,26.167 47.833,25.192 47.833,24C47.833,22.808 46.858,21.833 45.667,21.833L41.333,21.833C40.142,21.833 39.167,22.808 39.167,24C39.167,25.192 40.142,26.167 41.333,26.167ZM21.833,2.333L21.833,6.667C21.833,7.858 22.808,8.833 24,8.833C25.192,8.833 26.167,7.858 26.167,6.667L26.167,2.333C26.167,1.142 25.192,0.167 24,0.167C22.808,0.167 21.833,1.142 21.833,2.333ZM21.833,41.333L21.833,45.667C21.833,46.858 22.808,47.833 24,47.833C25.192,47.833 26.167,46.858 26.167,45.667L26.167,41.333C26.167,40.142 25.192,39.167 24,39.167C22.808,39.167 21.833,40.142 21.833,41.333ZM10.978,7.923C10.778,7.722 10.54,7.563 10.278,7.454C10.015,7.346 9.734,7.29 9.451,7.29C9.167,7.29 8.886,7.346 8.624,7.454C8.362,7.563 8.124,7.722 7.923,7.923C7.722,8.124 7.563,8.362 7.454,8.624C7.346,8.886 7.29,9.167 7.29,9.451C7.29,9.735 7.346,10.016 7.454,10.278C7.563,10.54 7.722,10.778 7.923,10.978L10.22,13.275C11.065,14.12 12.452,14.12 13.275,13.275C14.098,12.43 14.12,11.043 13.275,10.22L10.978,7.923ZM37.78,34.725C37.579,34.524 37.341,34.365 37.079,34.256C36.817,34.147 36.536,34.091 36.252,34.091C35.969,34.091 35.688,34.147 35.426,34.256C35.163,34.365 34.925,34.524 34.725,34.725C34.524,34.925 34.365,35.163 34.256,35.426C34.147,35.688 34.091,35.969 34.091,36.252C34.091,36.536 34.147,36.817 34.256,37.079C34.365,37.341 34.524,37.579 34.725,37.78L37.022,40.077C37.867,40.922 39.253,40.922 40.077,40.077C40.277,39.876 40.437,39.638 40.546,39.376C40.654,39.114 40.71,38.833 40.71,38.549C40.71,38.265 40.654,37.984 40.546,37.722C40.437,37.46 40.277,37.222 40.077,37.022L37.78,34.725ZM40.077,10.978C40.277,10.778 40.437,10.54 40.546,10.278C40.654,10.016 40.71,9.735 40.71,9.451C40.71,9.167 40.654,8.886 40.546,8.624C40.437,8.362 40.277,8.124 40.077,7.923C39.876,7.722 39.638,7.563 39.376,7.454C39.114,7.346 38.833,7.29 38.549,7.29C38.265,7.29 37.984,7.346 37.722,7.454C37.46,7.563 37.222,7.722 37.022,7.923L34.725,10.22C33.88,11.065 33.88,12.452 34.725,13.275C35.57,14.098 36.957,14.12 37.78,13.275L40.077,10.978ZM13.275,37.78C13.476,37.579 13.635,37.341 13.744,37.079C13.853,36.817 13.908,36.536 13.908,36.252C13.908,35.969 13.853,35.688 13.744,35.426C13.635,35.163 13.476,34.925 13.275,34.725C13.074,34.524 12.836,34.365 12.574,34.256C12.312,34.147 12.031,34.091 11.747,34.091C11.464,34.091 11.183,34.147 10.92,34.256C10.658,34.365 10.42,34.524 10.22,34.725L7.923,37.022C7.078,37.867 7.078,39.253 7.923,40.077C8.768,40.9 10.155,40.922 10.978,40.077L13.275,37.78Z" fill="#000000"/>
</svg>
