<svg width="40" height="40" viewBox="0 0 40 40" fill="none" xmlns="http://www.w3.org/2000/svg" xmlns:xlink="http://www.w3.org/1999/xlink">
<path d="M20,39.5C14.583,39.5 9.979,37.604 6.188,33.812C2.396,30.021 0.5,25.417 0.5,20C0.5,14.583 2.396,9.979 6.188,6.188C9.979,2.396 14.583,0.5 20,0.5C20.506,0.5 21.002,0.518 21.491,0.554C21.979,0.59 22.457,0.644 22.925,0.717C21.444,1.764 20.261,3.127 19.376,4.807C18.491,6.487 18.049,8.301 18.05,10.25C18.05,13.5 19.188,16.263 21.463,18.538C23.738,20.812 26.5,21.95 29.75,21.95C31.736,21.95 33.56,21.507 35.221,20.622C36.882,19.736 38.236,18.554 39.283,17.075C39.356,17.544 39.41,18.023 39.446,18.509C39.482,18.996 39.5,19.493 39.5,20C39.5,25.417 37.604,30.021 33.812,33.812C30.021,37.604 25.417,39.5 20,39.5ZM20,35.167C23.178,35.167 26.031,34.291 28.558,32.539C31.086,30.786 32.928,28.503 34.083,25.688C33.361,25.868 32.639,26.013 31.917,26.121C31.194,26.229 30.472,26.283 29.75,26.283C25.308,26.283 21.525,24.721 18.401,21.597C15.277,18.472 13.715,14.69 13.717,10.25C13.717,9.528 13.771,8.806 13.879,8.083C13.988,7.361 14.132,6.639 14.313,5.917C11.496,7.072 9.211,8.914 7.459,11.442C5.707,13.969 4.832,16.822 4.833,20C4.833,24.189 6.314,27.764 9.275,30.725C12.236,33.686 15.811,35.167 20,35.167Z" fill="#000000"/>
</svg>
