<svg width="56" height="62" viewBox="0 0 56 62" fill="none" xmlns="http://www.w3.org/2000/svg" xmlns:xlink="http://www.w3.org/1999/xlink">
<path d="M27.25,1.833L28.171,0.649C27.629,0.228 26.871,0.228 26.329,0.649L27.25,1.833ZM1,54.333L-0.5,54.333L1,54.333ZM19.173,60.167L19.173,61.667C20.001,61.667 20.673,60.995 20.673,60.167L19.173,60.167ZM19.173,37.731L19.173,36.231C18.345,36.231 17.673,36.903 17.673,37.731L19.173,37.731ZM35.327,37.731L36.827,37.731C36.827,36.903 36.155,36.231 35.327,36.231L35.327,37.731ZM35.327,60.167L33.827,60.167C33.827,60.995 34.498,61.667 35.327,61.667L35.327,60.167ZM4.237,21.632L28.171,3.017L26.329,0.649L2.395,19.264L4.237,21.632ZM26.329,3.017L50.263,21.632L52.105,19.264L28.171,0.649L26.329,3.017ZM52,25.185L52,54.333L55,54.333L55,25.185L52,25.185ZM52,54.333C52,55.483 51.543,56.585 50.731,57.398L52.852,59.519C54.227,58.144 55,56.278 55,54.333L52,54.333ZM50.731,57.398C49.918,58.21 48.816,58.667 47.667,58.667L47.667,61.667C49.612,61.667 51.477,60.894 52.852,59.519L50.731,57.398ZM6.833,58.667C5.684,58.667 4.582,58.21 3.769,57.398L1.648,59.519C3.023,60.894 4.888,61.667 6.833,61.667L6.833,58.667ZM3.769,57.398C2.957,56.585 2.5,55.483 2.5,54.333L-0.5,54.333C-0.5,56.278 0.273,58.144 1.648,59.519L3.769,57.398ZM2.5,54.333L2.5,25.185L-0.5,25.185L-0.5,54.333L2.5,54.333ZM6.833,61.667L19.173,61.667L19.173,58.667L6.833,58.667L6.833,61.667ZM20.673,60.167L20.673,37.731L17.673,37.731L17.673,60.167L20.673,60.167ZM19.173,39.231L35.327,39.231L35.327,36.231L19.173,36.231L19.173,39.231ZM33.827,37.731L33.827,60.167L36.827,60.167L36.827,37.731L33.827,37.731ZM35.327,61.667L47.667,61.667L47.667,58.667L35.327,58.667L35.327,61.667ZM50.263,21.632C51.359,22.485 52,23.796 52,25.185L55,25.185C55,22.87 53.931,20.685 52.105,19.264L50.263,21.632ZM2.395,19.264C0.569,20.685 -0.5,22.87 -0.5,25.185L2.5,25.185C2.5,23.796 3.141,22.485 4.237,21.632L2.395,19.264Z" fill="#FFFFFF"/>
</svg>
