<svg width="84" height="98" viewBox="0 0 84 98" fill="none" xmlns="http://www.w3.org/2000/svg" xmlns:xlink="http://www.w3.org/1999/xlink">
<path d="M29.753,46.996C31.68,59.819 28.149,66.83 18.179,68.304C7.099,69.943 2.534,62.521 0.607,49.698C-1.986,32.443 4.107,21.711 12.793,21.019C20.699,20.392 27.823,34.175 29.753,46.996ZM34.926,82.584C35.611,89.864 31.676,96.659 25.739,97.823C19.745,98.995 12.896,94.242 11.5,87.062C10.105,79.883 15.383,79.502 21.852,78.266C28.32,77.03 34.099,73.804 34.926,82.584ZM54.253,25.994C52.326,38.817 55.856,45.828 65.825,47.302C76.907,48.941 81.47,41.518 83.397,28.695C85.991,11.438 79.897,0.647 71.212,0.017C63.25,-0.56 56.182,13.171 54.253,25.994ZM49.079,61.584C48.395,68.862 52.33,75.659 58.267,76.823C64.261,77.995 71.11,73.242 72.505,66.062C73.901,58.883 68.622,58.502 62.154,57.264C55.686,56.026 49.906,52.802 49.079,61.584Z" fill="#C8F0F0"/>
</svg>
