<svg width="40" height="40" viewBox="0 0 40 40" fill="none" xmlns="http://www.w3.org/2000/svg" xmlns:xlink="http://www.w3.org/1999/xlink">
<path d="M7,0.5C5.276,0.5 3.623,1.185 2.404,2.404C1.185,3.623 0.5,5.276 0.5,7L0.5,23.25C0.5,24.974 1.185,26.627 2.404,27.846C3.623,29.065 5.276,29.75 7,29.75L10.25,29.75L10.25,33C10.25,34.724 10.935,36.377 12.154,37.596C13.373,38.815 15.026,39.5 16.75,39.5L33,39.5C34.724,39.5 36.377,38.815 37.596,37.596C38.815,36.377 39.5,34.724 39.5,33L39.5,16.75C39.5,15.026 38.815,13.373 37.596,12.154C36.377,10.935 34.724,10.25 33,10.25L29.75,10.25L29.75,7C29.75,5.276 29.065,3.623 27.846,2.404C26.627,1.185 24.974,0.5 23.25,0.5L7,0.5Z" stroke="#000000" stroke-width="2" stroke-miterlimit="3.999327"/>
</svg>
