<svg width="54" height="48" viewBox="0 0 54 48" fill="none" xmlns="http://www.w3.org/2000/svg" xmlns:xlink="http://www.w3.org/1999/xlink">
<path d="M1,41.5L-0.5,41.5L1,41.5ZM6,1.5L6,0L6,1.5ZM18.5,1.5L19.748,0.668C19.47,0.251 19.002,0 18.5,0L18.5,1.5ZM23.5,9L22.252,9.832C22.53,10.249 22.998,10.5 23.5,10.5L23.5,9ZM46,9L46,7.5L46,9ZM49.5,41.5C49.5,42.428 49.131,43.318 48.475,43.975L50.596,46.096C51.815,44.877 52.5,43.224 52.5,41.5L49.5,41.5ZM48.475,43.975C47.818,44.631 46.928,45 46,45L46,48C47.724,48 49.377,47.315 50.596,46.096L48.475,43.975ZM46,45L6,45L6,48L46,48L46,45ZM6,45C5.072,45 4.181,44.631 3.525,43.975L1.404,46.096C2.623,47.315 4.276,48 6,48L6,45ZM3.525,43.975C2.869,43.318 2.5,42.428 2.5,41.5L-0.5,41.5C-0.5,43.224 0.185,44.877 1.404,46.096L3.525,43.975ZM2.5,41.5L2.5,6.5L-0.5,6.5L-0.5,41.5L2.5,41.5ZM2.5,6.5C2.5,5.572 2.869,4.682 3.525,4.025L1.404,1.904C0.185,3.123 -0.5,4.776 -0.5,6.5L2.5,6.5ZM3.525,4.025C4.181,3.369 5.072,3 6,3L6,0C4.276,0 2.623,0.685 1.404,1.904L3.525,4.025ZM6,3L18.5,3L18.5,0L6,0L6,3ZM17.252,2.332L22.252,9.832L24.748,8.168L19.748,0.668L17.252,2.332ZM23.5,10.5L46,10.5L46,7.5L23.5,7.5L23.5,10.5ZM46,10.5C46.928,10.5 47.818,10.869 48.475,11.525L50.596,9.404C49.377,8.185 47.724,7.5 46,7.5L46,10.5ZM48.475,11.525C49.131,12.182 49.5,13.072 49.5,14L52.5,14C52.5,12.276 51.815,10.623 50.596,9.404L48.475,11.525ZM49.5,14L49.5,41.5L52.5,41.5L52.5,14L49.5,14Z" fill="#3A276A"/>
</svg>
