<svg width="48" height="48" viewBox="0 0 48 48" fill="none" xmlns="http://www.w3.org/2000/svg" xmlns:xlink="http://www.w3.org/1999/xlink">
<path d="M46.5,25.975L47.994,26.113C48.048,25.524 47.752,24.959 47.237,24.668C46.722,24.378 46.084,24.417 45.609,24.769L46.5,25.975ZM22.025,1.5L23.232,2.392C23.583,1.916 23.622,1.279 23.332,0.764C23.042,0.248 22.476,-0.048 21.887,0.006L22.025,1.5ZM45.007,25.837C44.64,29.809 43.149,33.594 40.709,36.749L43.083,38.584C45.871,34.978 47.574,30.652 47.994,26.113L45.007,25.837ZM40.709,36.749C38.27,39.905 34.982,42.3 31.23,43.656L32.249,46.477C36.537,44.928 40.294,42.191 43.083,38.584L40.709,36.749ZM31.23,43.656C27.479,45.011 23.419,45.269 19.525,44.401L18.873,47.329C23.322,48.321 27.962,48.026 32.249,46.477L31.23,43.656ZM19.525,44.401C15.632,43.533 12.067,41.574 9.246,38.754L7.125,40.875C10.349,44.098 14.423,46.337 18.873,47.329L19.525,44.401ZM9.246,38.754C6.426,35.933 4.467,32.368 3.599,28.475L0.671,29.128C1.663,33.577 3.902,37.652 7.125,40.875L9.246,38.754ZM3.599,28.475C2.731,24.582 2.99,20.522 4.345,16.77L1.523,15.751C-0.026,20.039 -0.321,24.678 0.671,29.128L3.599,28.475ZM4.345,16.77C5.7,13.019 8.095,9.731 11.251,7.291L9.416,4.918C5.809,7.706 3.072,11.464 1.523,15.751L4.345,16.77ZM11.251,7.291C14.406,4.851 18.191,3.361 22.163,2.994L21.887,0.006C17.348,0.426 13.022,2.129 9.416,4.918L11.251,7.291ZM20.819,0.608C18.114,4.268 16.812,8.777 17.151,13.315L20.142,13.092C19.857,9.27 20.954,5.473 23.232,2.392L20.819,0.608ZM17.151,13.315C17.489,17.853 19.445,22.119 22.663,25.337L24.785,23.216C22.075,20.506 20.427,16.914 20.142,13.092L17.151,13.315ZM22.663,25.337C25.881,28.555 30.147,30.511 34.685,30.85L34.908,27.858C31.087,27.573 27.494,25.926 24.785,23.216L22.663,25.337ZM34.685,30.85C39.223,31.188 43.732,29.886 47.392,27.181L45.609,24.769C42.527,27.047 38.73,28.143 34.908,27.858L34.685,30.85Z" fill="#3A276A"/>
</svg>
