<svg width="32" height="24" viewBox="0 0 32 24" fill="none" xmlns="http://www.w3.org/2000/svg" xmlns:xlink="http://www.w3.org/1999/xlink">
<path d="M15.968,23.619C16.067,23.626 16.166,23.611 16.259,23.577C16.352,23.542 16.436,23.489 16.506,23.419C16.658,23.281 20.044,19.877 20.812,19.199C20.909,19.051 20.969,18.881 20.984,18.705C20.96,18.51 20.864,18.332 20.716,18.203C19.341,17.169 17.666,16.61 15.945,16.61C14.224,16.61 12.55,17.169 11.174,18.203C11.064,18.349 10.995,18.523 10.974,18.705C10.961,18.797 10.973,18.892 11.008,18.979C11.043,19.065 11.101,19.141 11.174,19.199C11.356,19.399 15.342,23.257 15.532,23.419C15.722,23.581 15.726,23.619 15.968,23.619Z" fill="#000000"/>
<path d="M5.986,12.975C6.001,13.152 6.078,13.318 6.204,13.443L8.514,16.043C8.636,16.159 8.798,16.223 8.966,16.223C9.134,16.223 9.296,16.159 9.418,16.043C11.159,14.269 13.532,13.258 16.018,13.229C18.5,13.275 20.867,14.284 22.618,16.043C22.74,16.156 22.899,16.218 23.065,16.218C23.231,16.218 23.39,16.156 23.512,16.043L25.836,13.443C25.939,13.308 25.998,13.145 26.006,12.975C26.016,12.887 26.006,12.799 25.976,12.715C25.947,12.632 25.899,12.557 25.836,12.495C24.583,11.146 23.066,10.071 21.379,9.335C19.692,8.6 17.871,8.22 16.03,8.22C14.19,8.22 12.368,8.6 10.681,9.335C8.994,10.071 7.477,11.146 6.224,12.495C6.06,12.729 5.986,12.709 5.986,12.975Z" fill="#000000"/>
<path d="M0.18,6.787C0.054,6.987 -0.02,7.035 -0.02,7.279C-0.002,7.456 0.067,7.625 0.18,7.763C0.18,7.763 2.114,9.851 2.608,10.213C2.742,10.316 2.906,10.371 3.074,10.371C3.243,10.371 3.406,10.316 3.54,10.213C6.891,6.989 11.36,5.187 16.01,5.187C20.66,5.187 25.13,6.989 28.48,10.213C28.48,10.213 29.004,10.593 29.38,10.213C29.756,9.833 31.78,7.763 31.78,7.763C31.894,7.625 31.963,7.457 31.98,7.279C31.989,7.187 31.976,7.094 31.941,7.008C31.906,6.923 31.851,6.847 31.78,6.787C27.546,2.68 21.879,0.384 15.98,0.384C10.081,0.384 4.414,2.68 0.18,6.787L0.18,6.787Z" fill="#000000"/>
</svg>
